{"techno":[[[{"note":36,"vel":120},{"note":42,"vel":100}],[{"note":42,"vel":100}],[{"note":42,"vel":100}],[{"note":42,"vel":100}],[{"note":36,"vel":100},{"note":38,"vel":100},{"note":42,"vel":100}],[{"note":42,"vel":100}],[{"note":42,"vel":100}],[{"note":42,"vel":100}],[{"note":36,"vel":120},{"note":42,"vel":100}],[{"note":42,"vel":100}],[{"note":42,"vel":100}],[{"note":42,"vel":100}],[{"note":36,"vel":100},{"note":38,"vel":100},{"note":42,"vel":100}],[{"note":42,"vel":100}],[{"note":42,"vel":100}],[{"note":42,"vel":100}]],[[{"note":36,"vel":120}],[],[],[],[{"note":38,"vel":100}],[],[],[],[{"note":36,"vel":120}],[],[],[],[{"note":38,"vel":100}],[],[],[]],[[{"note":36,"vel":120},{"note":42,"vel":100}],[{"note":42,"vel":60}],[{"note":42,"vel":100}],[{"note":42,"vel":60}],[{"note":38,"vel":100},{"note":42,"vel":100}],[{"note":42,"vel":60}],[{"note":42,"vel":100}],[{"note":42,"vel":60}],[{"note":36,"vel":120},{"note":42,"vel":100}],[{"note":42,"vel":60}],[{"note":42,"vel":100}],[{"note":42,"vel":60}],[{"note":38,"vel":100},{"note":42,"vel":100}],[{"note":42,"vel":60}],[{"note":42,"vel":100}],[{"note":46,"vel":100}]],[[{"note":36,"vel":120}],[{"note":46,"vel":100}],[],[{"note":46,"vel":100}],[{"note":36,"vel":100},{"note":38,"vel":120}],[{"note":46,"vel":100}],[],[{"note":46,"vel":100}],[{"note":36,"vel":120}],[{"note":46,"vel":100}],[],[{"note":46,"vel":100}],[{"note":36,"vel":100},{"note":38,"vel":120}],[{"note":46,"vel":100}],[],[{"note":46,"vel":100}]],[[{"note":36,"vel":120},{"note":42,"vel":100}],[{"note":42,"vel":100}],[{"note":36,"vel":100},{"note":42,"vel":100}],[{"note":42,"vel":100}],[{"note":36,"vel":100},{"note":38,"vel":120},{"note":42,"vel":100}],[{"note":36,"vel":100}],[{"note":42,"vel":100}],[{"note":42,"vel":100}],[{"note":36,"vel":120},{"note":42,"vel":100}],[{"note":42,"vel":100}],[{"note":36,"vel":100},{"note":42,"vel":100}],[{"note":42,"vel":100}],[{"note":36,"vel":100},{"note":38,"vel":120},{"note":42,"vel":100}],[{"note":36,"vel":100}],[{"note":42,"vel":100}],[{"note":46,"vel":100}]],[[{"note":36,"vel":120}],[],[],[{"note":36,"vel":100}],[],[{"note":36,"vel":100},{"note":38,"vel":100}],[],[],[{"note":36,"vel":120}],[],[],[{"note":36,"vel":100}],[],[{"note":38,"vel":120}],[],[]],[[{"note":36,"vel":120}],[],[{"note":38,"vel":100}],[],[{"note":36,"vel":100},{"note":47,"vel":100}],[],[{"note":38,"vel":100}],[],[{"note":36,"vel":120}],[],[{"note":38,"vel":100}],[{"note":47,"vel":100}],[{"note":36,"vel":47}],[{"note":47,"vel":100}],[{"note":38,"vel":49}],[]],[[{"note":36,"vel":120},{"note":56,"vel":100}],[],[{"note":56,"vel":100}],[],[{"note":38,"vel":100},{"note":56,"vel":100}],[],[{"note":56,"vel":100}],[],[{"note":36,"vel":120},{"note":56,"vel":100}],[],[{"note":56,"vel":100}],[],[{"note":38,"vel":100},{"note":56,"vel":100}],[],[{"note":56,"vel":100}],[{"note":46,"vel":100}]],[[{"note":36,"vel":120}],[],[],[],[],[],[{"note":38,"vel":120}],[],[{"note":36,"vel":100}],[{"note":36,"vel":60}],[],[],[{"note":38,"vel":100}],[],[],[]],[[{"note":36,"vel":120},{"note":37,"vel":100}],[{"note":37,"vel":100}],[{"note":36,"vel":100},{"note":37,"vel":100}],[{"note":37,"vel":100}],[{"note":38,"vel":120},{"note":37,"vel":100}],[{"note":37,"vel":100}],[{"note":36,"vel":100},{"note":37,"vel":100}],[{"note":37,"vel":100}],[{"note":36,"vel":120},{"note":37,"vel":100}],[{"note":37,"vel":100}],[{"note":36,"vel":100},{"note":37,"vel":100}],[{"note":37,"vel":100}],[{"note":38,"vel":120},{"note":37,"vel":100}],[{"note":37,"vel":100}],[{"note":36,"vel":100},{"note":37,"vel":100}],[{"note":37,"vel":100}]]],"acid-techno":[[[{"note":36,"vel":120},{"note":42,"vel":100}],[{"note":42,"vel":100}],[{"note":42,"vel":100}],[{"note":42,"vel":100}],[{"note":38,"vel":120},{"note":42,"vel":100}],[{"note":42,"vel":100}],[{"note":42,"vel":100}],[{"note":42,"vel":100}],[{"note":36,"vel":120},{"note":42,"vel":100}],[{"note":42,"vel":100}],[{"note":42,"vel":100}],[{"note":42,"vel":100}],[{"note":38,"vel":120},{"note":42,"vel":100}],[{"note":42,"vel":100}],[{"note":42,"vel":100}],[{"note":46,"vel":120}]],[[{"note":36,"vel":120},{"note":42,"vel":100}],[],[{"note":36,"vel":100},{"note":42,"vel":100}],[{"note":42,"vel":100}],[{"note":38,"vel":100},{"note":42,"vel":100}],[{"note":42,"vel":100}],[{"note":36,"vel":100}],[],[{"note":36,"vel":120},{"note":36,"vel":60},{"note":42,"vel":100}],[{"note":42,"vel":100}],[],[{"note":42,"vel":100}],[{"note":38,"vel":120},{"note":42,"vel":100}],[{"note":42,"vel":100}],[],[{"note":42,"vel":100}]],[[{"note":36,"vel":120},{"note":50,"vel":100}],[],[{"note":50,"vel":100}],[],[{"note":36,"vel":100},{"note":50,"vel":100}],[{"note":50,"vel":100}],[{"note":36,"vel":100}],[],[{"note":36,"vel":120},{"note":50,"vel":100}],[],[{"note":50,"vel":100}],[],[{"note":36,"vel":100},{"note":50,"vel":100}],[{"note":50,"vel":100}],[{"note":36,"vel":100}],[{"note":50,"vel":120}]],[[{"note":36,"vel":120},{"note":46,"vel":100}],[],[{"note":46,"vel":100}],[],[{"note":38,"vel":120},{"note":46,"vel":100}],[],[{"note":46,"vel":100}],[],[{"note":36,"vel":120},{"note":46,"vel":100}],[],[{"note":46,"vel":100}],[],[{"note":38,"vel":120},{"note":46,"vel":100}],[],[{"note":46,"vel":100}],[]],[[{"note":36,"vel":120}],[{"note":36,"vel":60}],[],[],[{"note":38,"vel":100}],[{"note":36,"vel":100}],[],[{"note":42,"vel":100}],[{"note":36,"vel":120}],[{"note":36,"vel":60}],[],[],[{"note":38,"vel":100}],[],[{"note":36,"vel":100}],[{"note":42,"vel":100}]],[[{"note":36,"vel":120}],[],[{"note":42,"vel":100}],[{"note":50,"vel":100}],[{"note":36,"vel":100},{"note":42,"vel":100}],[{"note":38,"vel":120},{"note":42,"vel":100}],[],[{"note":42,"vel":100}],[{"note":36,"vel":120}],[],[{"note":42,"vel":100}],[],[{"note":36,"vel":100},{"note":42,"vel":100}],[{"note":38,"vel":120},{"note":50,"vel":100},{"note":42,"vel":100}],[],[{"note":42,"vel":100}]],[[{"note":36,"vel":120},{"note":37,"vel":100}],[{"note":37,"vel":100}],[{"note":37,"vel":100}],[{"note":37,"vel":100}],[{"note":38,"vel":120},{"note":37,"vel":100}],[{"note":37,"vel":100}],[{"note":37,"vel":100}],[{"note":37,"vel":100}],[{"note":36,"vel":120},{"note":37,"vel":100}],[{"note":37,"vel":100}],[{"note":37,"vel":100}],[{"note":37,"vel":100}],[{"note":38,"vel":120},{"note":37,"vel":100}],[{"note":37,"vel":100}],[{"note":37,"vel":100}],[{"note":37,"vel":120}]],[[{"note":36,"vel":120}],[],[{"note":42,"vel":100}],[],[{"note":42,"vel":100}],[{"note":38,"vel":120}],[],[{"note":42,"vel":100}],[{"note":36,"vel":100}],[{"note":42,"vel":100}],[],[{"note":38,"vel":60}],[],[{"note":42,"vel":100}],[{"note":36,"vel":100}],[]],[[{"note":36,"vel":120},{"note":56,"vel":100}],[{"note":56,"vel":100}],[{"note":42,"vel":100}],[],[{"note":38,"vel":120},{"note":56,"vel":100}],[{"note":42,"vel":100}],[{"note":36,"vel":100}],[],[{"note":36,"vel":120},{"note":56,"vel":100}],[{"note":56,"vel":100}],[{"note":42,"vel":100}],[],[{"note":38,"vel":120},{"note":56,"vel":100}],[],[{"note":36,"vel":100},{"note":56,"vel":100}],[{"note":42,"vel":100}]],[[{"note":36,"vel":120}],[{"note":36,"vel":120}],[],[{"note":38,"vel":120}],[{"note":36,"vel":120}],[],[{"note":38,"vel":120}],[{"note":42,"vel":100}],[{"note":36,"vel":120}],[{"note":36,"vel":120}],[],[{"note":38,"vel":120}],[{"note":36,"vel":120}],[],[{"note":42,"vel":100}],[{"note":38,"vel":120}]]],"trance":[[[{"note":36,"vel":120},{"note":42,"vel":100}],[{"note":42,"vel":100}],[{"note":42,"vel":100}],[{"note":42,"vel":100}],[{"note":38,"vel":120},{"note":42,"vel":100}],[{"note":42,"vel":100}],[{"note":42,"vel":100}],[{"note":42,"vel":100}],[{"note":36,"vel":120},{"note":42,"vel":100}],[{"note":42,"vel":100}],[{"note":42,"vel":100}],[{"note":42,"vel":100}],[{"note":38,"vel":120},{"note":49,"vel":100},{"note":42,"vel":100}],[{"note":42,"vel":100}],[{"note":42,"vel":100}],[{"note":46,"vel":100}]],[[{"note":36,"vel":120},{"note":42,"vel":100}],[{"note":42,"vel":100}],[{"note":42,"vel":100}],[{"note":42,"vel":100},{"note":46,"vel":100}],[{"note":38,"vel":120},{"note":42,"vel":100}],[{"note":42,"vel":100}],[{"note":42,"vel":100}],[{"note":42,"vel":100},{"note":46,"vel":100}],[{"note":36,"vel":120},{"note":42,"vel":100}],[{"note":42,"vel":100}],[{"note":42,"vel":100}],[{"note":42,"vel":100},{"note":46,"vel":100}],[{"note":38,"vel":120},{"note":42,"vel":100}],[{"note":42,"vel":100}],[{"note":42,"vel":100}],[{"note":42,"vel":100},{"note":46,"vel":100}]],[[{"note":36,"vel":120},{"note":42,"vel":100}],[{"note":36,"vel":100},{"note":42,"vel":100}],[{"note":42,"vel":100}],[{"note":42,"vel":100}],[{"note":38,"vel":120},{"note":42,"vel":100}],[{"note":36,"vel":100},{"note":42,"vel":100}],[{"note":42,"vel":100}],[{"note":42,"vel":100}],[{"note":36,"vel":120},{"note":42,"vel":100}],[{"note":36,"vel":100},{"note":42,"vel":100}],[{"note":42,"vel":100}],[{"note":42,"vel":100}],[{"note":38,"vel":120},{"note":49,"vel":100},{"note":42,"vel":100}],[{"note":42,"vel":100}],[{"note":42,"vel":100}],[{"note":46,"vel":120}]],[[{"note":36,"vel":120},{"note":42,"vel":100}],[{"note":42,"vel":100}],[{"note":42,"vel":100}],[{"note":42,"vel":100}],[{"note":38,"vel":120},{"note":42,"vel":100}],[{"note":42,"vel":100}],[{"note":42,"vel":100}],[{"note":42,"vel":100}],[{"note":36,"vel":120},{"note":49,"vel":100},{"note":42,"vel":100}],[{"note":42,"vel":100}],[{"note":42,"vel":100}],[{"note":42,"vel":100}],[{"note":38,"vel":120},{"note":42,"vel":100}],[{"note":42,"vel":100}],[{"note":42,"vel":100},{"note":46,"vel":100}],[{"note":42,"vel":100}]],[[{"note":36,"vel":120},{"note":42,"vel":100}],[],[{"note":42,"vel":100}],[{"note":42,"vel":100}],[{"note":38,"vel":120},{"note":42,"vel":100}],[{"note":42,"vel":100}],[],[{"note":42,"vel":100}],[{"note":36,"vel":120},{"note":42,"vel":100}],[{"note":42,"vel":100}],[{"note":42,"vel":100}],[],[{"note":38,"vel":120},{"note":42,"vel":100}],[{"note":42,"vel":100}],[{"note":42,"vel":100}],[{"note":42,"vel":100}]],[[{"note":36,"vel":120},{"note":42,"vel":100}],[{"note":42,"vel":100}],[],[{"note":42,"vel":100}],[{"note":36,"vel":100},{"note":38,"vel":120},{"note":42,"vel":100}],[{"note":42,"vel":100}],[{"note":42,"vel":100}],[{"note":42,"vel":100}],[{"note":36,"vel":120},{"note":42,"vel":100}],[{"note":42,"vel":100}],[],[{"note":42,"vel":100}],[{"note":36,"vel":100},{"note":38,"vel":120},{"note":42,"vel":100}],[{"note":42,"vel":100}],[{"note":42,"vel":100}],[{"note":42,"vel":100}]],[[{"note":36,"vel":120}],[],[],[{"note":42,"vel":100}],[{"note":38,"vel":120},{"note":42,"vel":100}],[{"note":42,"vel":100}],[],[{"note":42,"vel":100}],[{"note":36,"vel":120}],[],[{"note":47,"vel":100}],[],[{"note":38,"vel":120},{"note":47,"vel":100}],[{"note":47,"vel":100},{"note":49,"vel":100}],[],[{"note":42,"vel":100}]],[[{"note":36,"vel":120},{"note":42,"vel":100}],[{"note":36,"vel":100},{"note":42,"vel":100}],[{"note":42,"vel":100}],[{"note":36,"vel":100},{"note":42,"vel":100}],[{"note":38,"vel":120},{"note":36,"vel":100},{"note":42,"vel":100}],[{"note":36,"vel":100},{"note":42,"vel":100}],[{"note":42,"vel":100}],[{"note":36,"vel":100},{"note":42,"vel":100}],[{"note":36,"vel":120},{"note":42,"vel":100}],[{"note":42,"vel":100}],[{"note":36,"vel":100},{"note":42,"vel":100}],[{"note":42,"vel":100}],[{"note":38,"vel":120},{"note":42,"vel":100}],[{"note":36,"vel":100},{"note":42,"vel":100}],[{"note":42,"vel":100}],[{"note":36,"vel":100},{"note":42,"vel":100}]],[[{"note":36,"vel":120}],[],[{"note":42,"vel":100}],[],[{"note":38,"vel":120}],[],[{"note":42,"vel":100}],[],[{"note":36,"vel":120}],[],[{"note":42,"vel":100}],[],[{"note":38,"vel":120},{"note":49,"vel":100}],[],[{"note":42,"vel":100}],[]],[[{"note":36,"vel":120},{"note":42,"vel":100}],[{"note":42,"vel":100}],[{"note":42,"vel":100}],[{"note":42,"vel":100}],[{"note":38,"vel":120},{"note":50,"vel":100},{"note":42,"vel":100}],[{"note":42,"vel":100}],[{"note":42,"vel":100}],[{"note":42,"vel":100}],[{"note":36,"vel":120},{"note":42,"vel":100}],[{"note":42,"vel":100}],[{"note":42,"vel":100}],[{"note":42,"vel":100}],[{"note":38,"vel":120},{"note":50,"vel":100},{"note":49,"vel":100},{"note":42,"vel":100}],[{"note":42,"vel":100}],[{"note":46,"vel":100}],[{"note":42,"vel":100}]]],"dub-techno":[[[{"note":36,"vel":120}],[],[],[],[],[],[{"note":38,"vel":100}],[],[],[],[],[],[{"note":36,"vel":100}],[],[],[]],[[{"note":36,"vel":120}],[],[],[],[{"note":38,"vel":100}],[],[],[],[{"note":36,"vel":100}],[],[],[],[{"note":38,"vel":100}],[],[],[]],[[{"note":36,"vel":120}],[],[],[],[],[],[],[],[{"note":36,"vel":100}],[],[{"note":38,"vel":60}],[],[],[],[],[]],[[{"note":36,"vel":120}],[],[{"note":42,"vel":100}],[],[],[],[{"note":42,"vel":100}],[],[{"note":36,"vel":100}],[],[{"note":42,"vel":100}],[],[{"note":38,"vel":100}],[],[{"note":42,"vel":100}],[]],[[{"note":36,"vel":120}],[],[],[{"note":36,"vel":60}],[],[],[{"note":38,"vel":100}],[],[{"note":36,"vel":120}],[],[],[],[],[{"note":38,"vel":60}],[],[]],[[{"note":36,"vel":120}],[],[{"note":51,"vel":100}],[],[{"note":38,"vel":100}],[],[{"note":51,"vel":100}],[],[{"note":36,"vel":100}],[],[{"note":51,"vel":100}],[],[{"note":38,"vel":100}],[],[{"note":51,"vel":100}],[]],[[{"note":36,"vel":120}],[],[],[],[],[{"note":46,"vel":100}],[],[],[{"note":36,"vel":100}],[],[],[],[{"note":38,"vel":100}],[],[{"note":46,"vel":100}],[]],[[{"note":36,"vel":120}],[],[{"note":37,"vel":100}],[],[],[],[{"note":37,"vel":100},{"note":38,"vel":100}],[],[{"note":36,"vel":100}],[],[{"note":37,"vel":100}],[],[],[{"note":37,"vel":100}],[],[]],[[{"note":36,"vel":120}],[],[],[],[{"note":36,"vel":100}],[],[{"note":38,"vel":100}],[],[],[],[{"note":36,"vel":100}],[],[],[{"note":38,"vel":60}],[],[{"note":36,"vel":60}]],[[{"note":36,"vel":120}],[],[],[],[],[],[{"note":38,"vel":100}],[],[{"note":36,"vel":100}],[],[],[],[],[],[],[]]],"idm":[[[{"note":36,"vel":120},{"note":42,"vel":100}],[{"note":42,"vel":60}],[{"note":38,"vel":100}],[{"note":42,"vel":100}],[{"note":36,"vel":100}],[{"note":42,"vel":100},{"note":38,"vel":60}],[],[{"note":42,"vel":100}],[{"note":36,"vel":120},{"note":42,"vel":100}],[{"note":42,"vel":60}],[{"note":47,"vel":100}],[{"note":38,"vel":100}],[{"note":36,"vel":100},{"note":42,"vel":100}],[],[{"note":50,"vel":60}],[{"note":42,"vel":60}]],[[{"note":36,"vel":120}],[{"note":36,"vel":60}],[{"note":42,"vel":100}],[{"note":38,"vel":60}],[{"note":42,"vel":100}],[{"note":36,"vel":100}],[{"note":42,"vel":100}],[{"note":38,"vel":60}],[{"note":36,"vel":120}],[{"note":42,"vel":100}],[],[{"note":38,"vel":100}],[{"note":36,"vel":60}],[],[{"note":50,"vel":100},{"note":42,"vel":100}],[]],[[{"note":36,"vel":120},{"note":42,"vel":100}],[{"note":36,"vel":60},{"note":42,"vel":100}],[{"note":42,"vel":100}],[{"note":38,"vel":100},{"note":42,"vel":100}],[{"note":42,"vel":100}],[{"note":36,"vel":100},{"note":42,"vel":100}],[{"note":42,"vel":100}],[{"note":38,"vel":60},{"note":42,"vel":100}],[{"note":36,"vel":120},{"note":42,"vel":100}],[{"note":42,"vel":100}],[{"note":36,"vel":60},{"note":42,"vel":100}],[],[{"note":38,"vel":100},{"note":42,"vel":100}],[{"note":36,"vel":100},{"note":42,"vel":100}],[{"note":42,"vel":100}],[{"note":50,"vel":100}]],[[],[{"note":36,"vel":120}],[],[],[{"note":38,"vel":100}],[],[{"note":36,"vel":100}],[{"note":42,"vel":60}],[],[],[{"note":36,"vel":100}],[],[{"note":47,"vel":100},{"note":38,"vel":100}],[],[],[{"note":36,"vel":100},{"note":42,"vel":100}]],[[{"note":36,"vel":120}],[],[],[],[],[{"note":38,"vel":100}],[],[],[],[],[{"note":36,"vel":120}],[],[],[],[],[{"note":38,"vel":120}]],[[{"note":36,"vel":120}],[{"note":42,"vel":100}],[{"note":42,"vel":60}],[],[{"note":38,"vel":100},{"note":42,"vel":100}],[{"note":42,"vel":60}],[{"note":36,"vel":60}],[{"note":42,"vel":100}],[{"note":36,"vel":120}],[],[{"note":42,"vel":100}],[{"note":47,"vel":100}],[{"note":38,"vel":100}],[{"note":42,"vel":60}],[{"note":36,"vel":100},{"note":42,"vel":100}],[]],[[{"note":36,"vel":120},{"note":42,"vel":100}],[{"note":42,"vel":100}],[{"note":42,"vel":100}],[{"note":42,"vel":60}],[{"note":36,"vel":60},{"note":42,"vel":100}],[{"note":42,"vel":100}],[{"note":38,"vel":120},{"note":42,"vel":100}],[{"note":42,"vel":60}],[{"note":36,"vel":120}],[{"note":42,"vel":60}],[{"note":42,"vel":100}],[{"note":38,"vel":60}],[],[{"note":36,"vel":100},{"note":42,"vel":100}],[{"note":42,"vel":100}],[{"note":50,"vel":60}]],[[{"note":36,"vel":120},{"note":42,"vel":100}],[{"note":42,"vel":60}],[{"note":38,"vel":100}],[{"note":42,"vel":100}],[{"note":42,"vel":60}],[{"note":36,"vel":60}],[{"note":42,"vel":100}],[{"note":38,"vel":60}],[{"note":36,"vel":120},{"note":42,"vel":100}],[{"note":42,"vel":60}],[{"note":47,"vel":100}],[{"note":42,"vel":100}],[{"note":38,"vel":100}],[{"note":42,"vel":60}],[{"note":36,"vel":100}],[{"note":50,"vel":100}]],[[{"note":36,"vel":120}],[],[],[{"note":42,"vel":100}],[],[],[{"note":38,"vel":100}],[{"note":42,"vel":60}],[],[],[{"note":36,"vel":100}],[{"note":42,"vel":100}],[],[],[{"note":38,"vel":100},{"note":50,"vel":100}],[]],[[{"note":36,"vel":120},{"note":42,"vel":100}],[],[{"note":38,"vel":60}],[{"note":42,"vel":100}],[{"note":36,"vel":100}],[{"note":38,"vel":100}],[],[{"note":42,"vel":60}],[],[{"note":36,"vel":100},{"note":42,"vel":100}],[],[{"note":38,"vel":100}],[{"note":36,"vel":60}],[],[{"note":50,"vel":100},{"note":42,"vel":100}],[]]],"edm":[[[{"note":36,"vel":120},{"note":42,"vel":100}],[{"note":42,"vel":100}],[{"note":42,"vel":100}],[{"note":42,"vel":100}],[{"note":38,"vel":120},{"note":50,"vel":100},{"note":42,"vel":100}],[{"note":42,"vel":100}],[{"note":42,"vel":100}],[{"note":42,"vel":100}],[{"note":36,"vel":120},{"note":42,"vel":100}],[{"note":42,"vel":100}],[{"note":42,"vel":100}],[{"note":42,"vel":100}],[{"note":38,"vel":120},{"note":50,"vel":100},{"note":49,"vel":100},{"note":42,"vel":100}],[{"note":42,"vel":100}],[{"note":42,"vel":100}],[{"note":46,"vel":120}]],[[{"note":36,"vel":120},{"note":42,"vel":100}],[{"note":42,"vel":100}],[{"note":36,"vel":100},{"note":42,"vel":100}],[{"note":42,"vel":100}],[{"note":38,"vel":120},{"note":42,"vel":100}],[{"note":42,"vel":100}],[{"note":36,"vel":100},{"note":42,"vel":100}],[{"note":42,"vel":100}],[{"note":36,"vel":120},{"note":42,"vel":100}],[{"note":42,"vel":100}],[{"note":36,"vel":100},{"note":42,"vel":100}],[{"note":42,"vel":100}],[{"note":38,"vel":120},{"note":50,"vel":100},{"note":42,"vel":100}],[{"note":42,"vel":100}],[{"note":42,"vel":100}],[{"note":46,"vel":120},{"note":42,"vel":100}]],[[{"note":36,"vel":120}],[{"note":42,"vel":100}],[{"note":42,"vel":100}],[{"note":42,"vel":100}],[{"note":38,"vel":120},{"note":42,"vel":100}],[{"note":42,"vel":100}],[{"note":42,"vel":100}],[{"note":42,"vel":100}],[{"note":36,"vel":120}],[{"note":42,"vel":100}],[{"note":42,"vel":100}],[{"note":42,"vel":100}],[{"note":38,"vel":120},{"note":50,"vel":100},{"note":42,"vel":100}],[{"note":42,"vel":100},{"note":46,"vel":100}],[{"note":42,"vel":100}],[{"note":49,"vel":120},{"note":46,"vel":100}]],[[{"note":36,"vel":120},{"note":42,"vel":100}],[{"note":42,"vel":100}],[{"note":42,"vel":100}],[{"note":42,"vel":100}],[{"note":38,"vel":120},{"note":42,"vel":100}],[{"note":42,"vel":100}],[{"note":36,"vel":100},{"note":42,"vel":100}],[{"note":42,"vel":100}],[{"note":36,"vel":120},{"note":42,"vel":100}],[{"note":42,"vel":100}],[{"note":42,"vel":100}],[{"note":42,"vel":100}],[{"note":38,"vel":120},{"note":50,"vel":100},{"note":42,"vel":100}],[{"note":36,"vel":100},{"note":42,"vel":100}],[{"note":42,"vel":100}],[{"note":46,"vel":100}]],[[{"note":36,"vel":120}],[{"note":42,"vel":100}],[],[{"note":42,"vel":100}],[{"note":38,"vel":120},{"note":50,"vel":100}],[{"note":42,"vel":100}],[],[{"note":42,"vel":100}],[{"note":36,"vel":120}],[{"note":42,"vel":100}],[{"note":36,"vel":100}],[{"note":42,"vel":100}],[{"note":38,"vel":120},{"note":50,"vel":100}],[{"note":42,"vel":100}],[],[{"note":46,"vel":100},{"note":42,"vel":100}]],[[{"note":36,"vel":120},{"note":42,"vel":100}],[{"note":42,"vel":100}],[{"note":42,"vel":100}],[{"note":42,"vel":100}],[{"note":38,"vel":120},{"note":42,"vel":100}],[{"note":42,"vel":100}],[{"note":42,"vel":100}],[{"note":42,"vel":100}],[{"note":36,"vel":120},{"note":42,"vel":100}],[{"note":42,"vel":100}],[{"note":36,"vel":100},{"note":42,"vel":100}],[{"note":42,"vel":100}],[{"note":38,"vel":120},{"note":42,"vel":100}],[{"note":42,"vel":100}],[{"note":42,"vel":100}],[{"note":42,"vel":100}]],[[{"note":36,"vel":120},{"note":42,"vel":100}],[],[{"note":42,"vel":100}],[],[{"note":38,"vel":120},{"note":50,"vel":100},{"note":42,"vel":100}],[],[{"note":42,"vel":100}],[],[{"note":36,"vel":120},{"note":42,"vel":100}],[],[{"note":42,"vel":100}],[],[{"note":38,"vel":120},{"note":50,"vel":100},{"note":42,"vel":100}],[{"note":36,"vel":100},{"note":42,"vel":100}],[{"note":46,"vel":100}],[]],[[{"note":36,"vel":120},{"note":42,"vel":100},{"note":49,"vel":100}],[{"note":42,"vel":100}],[{"note":42,"vel":100}],[{"note":42,"vel":100}],[{"note":38,"vel":120},{"note":50,"vel":100},{"note":42,"vel":100}],[{"note":42,"vel":100}],[{"note":42,"vel":100}],[{"note":42,"vel":100}],[{"note":36,"vel":120},{"note":42,"vel":100}],[{"note":42,"vel":100}],[{"note":42,"vel":100}],[{"note":42,"vel":100}],[{"note":38,"vel":120},{"note":50,"vel":100},{"note":49,"vel":100},{"note":42,"vel":100}],[{"note":42,"vel":100}],[{"note":46,"vel":100}],[{"note":42,"vel":100}]],[[{"note":36,"vel":120},{"note":42,"vel":100}],[{"note":42,"vel":100}],[{"note":36,"vel":100},{"note":42,"vel":100}],[{"note":42,"vel":100}],[{"note":38,"vel":120},{"note":42,"vel":100}],[{"note":42,"vel":100}],[{"note":42,"vel":100}],[{"note":46,"vel":100}],[{"note":36,"vel":120},{"note":42,"vel":100}],[{"note":42,"vel":100}],[{"note":36,"vel":100},{"note":42,"vel":100}],[{"note":42,"vel":100}],[{"note":38,"vel":120},{"note":50,"vel":100},{"note":42,"vel":100}],[{"note":42,"vel":100}],[{"note":46,"vel":100}],[{"note":42,"vel":100}]],[[{"note":36,"vel":120}],[{"note":42,"vel":100}],[],[{"note":36,"vel":100},{"note":42,"vel":100}],[{"note":38,"vel":120},{"note":42,"vel":100}],[{"note":42,"vel":100}],[{"note":36,"vel":100}],[{"note":42,"vel":100}],[{"note":36,"vel":120}],[{"note":42,"vel":100}],[],[{"note":42,"vel":100}],[{"note":38,"vel":120},{"note":50,"vel":100},{"note":42,"vel":100}],[{"note":42,"vel":100}],[{"note":36,"vel":100},{"note":46,"vel":100}],[{"note":42,"vel":100}]]],"drum-and-bass":[[[{"note":36,"vel":120}],[],[{"note":42,"vel":100}],[{"note":38,"vel":100}],[{"note":42,"vel":100}],[],[{"note":38,"vel":100},{"note":42,"vel":100}],[],[{"note":36,"vel":120}],[],[{"note":42,"vel":100}],[{"note":38,"vel":100},{"note":42,"vel":100}],[{"note":36,"vel":100}],[],[{"note":38,"vel":120}],[]],[[{"note":36,"vel":120}],[],[],[{"note":38,"vel":100}],[],[],[{"note":36,"vel":100}],[{"note":38,"vel":100}],[{"note":36,"vel":120}],[],[],[{"note":38,"vel":100}],[],[{"note":36,"vel":100}],[],[{"note":38,"vel":120}]],[[{"note":36,"vel":120}],[{"note":51,"vel":100}],[{"note":51,"vel":100}],[{"note":38,"vel":100},{"note":51,"vel":100}],[{"note":51,"vel":100}],[{"note":51,"vel":100}],[{"note":36,"vel":100}],[{"note":51,"vel":100}],[{"note":36,"vel":120}],[{"note":51,"vel":100}],[{"note":51,"vel":100}],[{"note":38,"vel":120},{"note":51,"vel":100}],[{"note":51,"vel":100}],[{"note":51,"vel":100}],[],[{"note":51,"vel":100}]],[[{"note":36,"vel":120}],[],[{"note":42,"vel":100}],[],[{"note":38,"vel":120}],[],[{"note":42,"vel":100}],[{"note":36,"vel":100}],[{"note":36,"vel":120}],[],[{"note":42,"vel":100}],[{"note":36,"vel":100}],[{"note":38,"vel":120}],[],[{"note":42,"vel":100}],[]],[[{"note":36,"vel":120}],[],[{"note":42,"vel":100}],[{"note":38,"vel":100}],[{"note":36,"vel":100}],[{"note":42,"vel":100}],[{"note":38,"vel":100}],[],[{"note":36,"vel":120}],[{"note":42,"vel":100}],[],[{"note":38,"vel":120}],[{"note":36,"vel":100}],[{"note":42,"vel":100}],[{"note":36,"vel":100}],[{"note":38,"vel":100}]],[[{"note":36,"vel":120}],[],[],[{"note":38,"vel":100}],[{"note":42,"vel":100}],[],[{"note":36,"vel":100}],[],[{"note":38,"vel":120}],[{"note":42,"vel":100}],[{"note":36,"vel":100}],[],[{"note":38,"vel":100}],[],[{"note":42,"vel":100}],[{"note":36,"vel":100}]],[[{"note":36,"vel":120}],[],[{"note":42,"vel":100}],[],[],[{"note":42,"vel":100}],[{"note":38,"vel":120}],[],[],[{"note":42,"vel":100}],[{"note":36,"vel":100}],[],[{"note":42,"vel":100}],[],[{"note":38,"vel":100}],[{"note":42,"vel":100}]],[[{"note":36,"vel":120}],[{"note":42,"vel":100}],[{"note":42,"vel":100}],[{"note":38,"vel":60}],[{"note":42,"vel":100}],[{"note":42,"vel":100}],[{"note":36,"vel":100}],[{"note":38,"vel":60}],[{"note":36,"vel":120}],[{"note":42,"vel":100}],[{"note":42,"vel":100}],[{"note":38,"vel":120}],[{"note":42,"vel":100}],[{"note":42,"vel":100}],[{"note":36,"vel":100}],[{"note":42,"vel":100}]],[[{"note":36,"vel":120}],[{"note":38,"vel":60}],[{"note":42,"vel":100}],[{"note":38,"vel":100}],[{"note":36,"vel":100}],[{"note":38,"vel":60}],[{"note":42,"vel":100}],[{"note":36,"vel":100}],[{"note":38,"vel":120}],[],[{"note":42,"vel":100}],[{"note":36,"vel":100}],[{"note":38,"vel":100}],[{"note":42,"vel":100}],[{"note":36,"vel":100}],[{"note":38,"vel":120}]],[[{"note":36,"vel":120}],[],[{"note":38,"vel":60}],[{"note":42,"vel":100}],[{"note":36,"vel":100}],[{"note":38,"vel":60}],[],[{"note":38,"vel":100}],[{"note":36,"vel":120}],[{"note":38,"vel":60}],[{"note":42,"vel":100}],[{"note":38,"vel":100}],[{"note":36,"vel":100}],[{"note":38,"vel":60}],[{"note":42,"vel":100}],[{"note":38,"vel":120}]]],"house":[[[{"note":36,"vel":120}],[{"note":42,"vel":100}],[{"note":42,"vel":100}],[{"note":42,"vel":100}],[{"note":50,"vel":120},{"note":46,"vel":100}],[{"note":42,"vel":100}],[{"note":42,"vel":100}],[{"note":42,"vel":100}],[{"note":36,"vel":120}],[{"note":42,"vel":100}],[{"note":42,"vel":100}],[{"note":42,"vel":100}],[{"note":50,"vel":120},{"note":46,"vel":100}],[{"note":42,"vel":100}],[{"note":42,"vel":100}],[{"note":42,"vel":100}]],[[{"note":36,"vel":120}],[],[{"note":42,"vel":60}],[],[{"note":36,"vel":100}],[{"note":50,"vel":120}],[{"note":42,"vel":100}],[],[{"note":36,"vel":120}],[],[{"note":42,"vel":60}],[{"note":36,"vel":60}],[{"note":50,"vel":120}],[],[{"note":42,"vel":60}],[]],[[{"note":36,"vel":120}],[{"note":42,"vel":100}],[{"note":42,"vel":100}],[{"note":42,"vel":100}],[{"note":50,"vel":120}],[{"note":42,"vel":100}],[{"note":36,"vel":100}],[{"note":42,"vel":100}],[{"note":36,"vel":120}],[{"note":42,"vel":100}],[{"note":42,"vel":100}],[{"note":36,"vel":60}],[{"note":50,"vel":120}],[{"note":42,"vel":100}],[{"note":42,"vel":100}],[{"note":46,"vel":100}]],[[{"note":36,"vel":120}],[{"note":42,"vel":100}],[{"note":46,"vel":100}],[{"note":42,"vel":100}],[{"note":50,"vel":120}],[{"note":42,"vel":100}],[{"note":46,"vel":100}],[{"note":42,"vel":100}],[{"note":36,"vel":120}],[{"note":42,"vel":100}],[{"note":36,"vel":100}],[{"note":42,"vel":100}],[{"note":50,"vel":120}],[{"note":42,"vel":100}],[{"note":46,"vel":100}],[{"note":42,"vel":100}]],[[{"note":36,"vel":120}],[],[{"note":42,"vel":100}],[{"note":37,"vel":100}],[{"note":50,"vel":120}],[],[{"note":42,"vel":100}],[{"note":36,"vel":100}],[{"note":36,"vel":120}],[{"note":37,"vel":100}],[{"note":42,"vel":100}],[],[{"note":50,"vel":120}],[{"note":37,"vel":100}],[{"note":42,"vel":100}],[]],[[{"note":36,"vel":120}],[],[],[{"note":42,"vel":60}],[{"note":50,"vel":100}],[],[{"note":42,"vel":60}],[],[{"note":36,"vel":120}],[{"note":42,"vel":60}],[],[],[{"note":50,"vel":120}],[],[{"note":42,"vel":60}],[]],[[{"note":36,"vel":120}],[{"note":42,"vel":100}],[{"note":37,"vel":100}],[{"note":42,"vel":100}],[{"note":50,"vel":120}],[{"note":42,"vel":100}],[{"note":42,"vel":100}],[{"note":37,"vel":60}],[{"note":36,"vel":120}],[{"note":42,"vel":100}],[{"note":37,"vel":100}],[{"note":42,"vel":100}],[{"note":50,"vel":120}],[{"note":36,"vel":60}],[{"note":42,"vel":100}],[{"note":46,"vel":100}]],[[{"note":36,"vel":120}],[],[{"note":42,"vel":100}],[],[{"note":50,"vel":120}],[{"note":42,"vel":100}],[{"note":36,"vel":100}],[],[{"note":42,"vel":100}],[{"note":36,"vel":120}],[],[{"note":42,"vel":100}],[{"note":50,"vel":120}],[],[{"note":42,"vel":100}],[{"note":46,"vel":100}]],[[{"note":36,"vel":120}],[],[{"note":42,"vel":100}],[{"note":36,"vel":100}],[{"note":50,"vel":120}],[{"note":42,"vel":100}],[{"note":36,"vel":100}],[{"note":42,"vel":100}],[{"note":36,"vel":120}],[],[{"note":42,"vel":100}],[],[{"note":50,"vel":120}],[{"note":42,"vel":100}],[{"note":36,"vel":100}],[{"note":46,"vel":120}]],[[{"note":36,"vel":120}],[],[{"note":42,"vel":60}],[],[{"note":50,"vel":100}],[],[{"note":42,"vel":60}],[],[{"note":36,"vel":100}],[],[{"note":42,"vel":60}],[{"note":36,"vel":60}],[{"note":50,"vel":120}],[],[{"note":46,"vel":60}],[]]],"breakbeat":[[[{"note":36,"vel":120}],[],[{"note":42,"vel":100}],[],[{"note":38,"vel":120}],[],[{"note":42,"vel":100}],[{"note":36,"vel":100}],[{"note":36,"vel":100}],[{"note":42,"vel":100}],[{"note":36,"vel":100}],[{"note":42,"vel":100}],[{"note":38,"vel":120}],[],[{"note":42,"vel":100}],[{"note":46,"vel":100}]],[[{"note":36,"vel":120}],[{"note":42,"vel":100}],[],[{"note":42,"vel":60}],[{"note":38,"vel":120}],[{"note":42,"vel":100}],[{"note":36,"vel":100}],[{"note":42,"vel":100}],[{"note":36,"vel":120}],[{"note":42,"vel":100}],[{"note":36,"vel":60}],[{"note":42,"vel":60}],[{"note":38,"vel":120}],[{"note":42,"vel":100}],[],[{"note":46,"vel":100}]],[[{"note":36,"vel":120}],[],[],[{"note":42,"vel":100}],[{"note":38,"vel":120}],[],[{"note":42,"vel":100}],[],[{"note":36,"vel":100}],[],[{"note":36,"vel":120}],[],[{"note":38,"vel":120}],[],[{"note":42,"vel":100}],[]],[[{"note":36,"vel":120}],[],[{"note":42,"vel":60}],[{"note":38,"vel":60}],[{"note":42,"vel":100}],[],[{"note":36,"vel":100}],[{"note":38,"vel":60}],[{"note":36,"vel":120}],[{"note":42,"vel":60}],[],[{"note":38,"vel":120}],[{"note":42,"vel":100}],[{"note":36,"vel":60}],[{"note":42,"vel":100}],[]],[[{"note":36,"vel":120}],[],[{"note":42,"vel":100}],[{"note":36,"vel":100}],[{"note":38,"vel":120}],[{"note":42,"vel":100}],[{"note":36,"vel":100}],[{"note":42,"vel":100}],[{"note":36,"vel":120}],[{"note":42,"vel":100}],[],[{"note":38,"vel":100}],[{"note":38,"vel":120}],[{"note":42,"vel":100}],[{"note":36,"vel":100}],[{"note":46,"vel":100}]],[[{"note":36,"vel":120}],[{"note":42,"vel":100}],[{"note":38,"vel":60}],[{"note":42,"vel":100}],[{"note":38,"vel":100}],[{"note":42,"vel":100}],[{"note":36,"vel":100}],[{"note":42,"vel":100}],[{"note":36,"vel":120}],[{"note":42,"vel":100}],[],[{"note":38,"vel":120}],[{"note":42,"vel":100}],[{"note":36,"vel":60}],[{"note":38,"vel":60}],[{"note":42,"vel":100}]],[[{"note":36,"vel":120}],[],[{"note":42,"vel":60}],[],[{"note":38,"vel":120}],[],[{"note":42,"vel":60}],[],[{"note":36,"vel":100}],[],[{"note":42,"vel":60}],[{"note":36,"vel":60}],[{"note":38,"vel":120}],[],[{"note":46,"vel":60}],[]],[[{"note":36,"vel":120}],[{"note":42,"vel":100}],[{"note":36,"vel":100}],[{"note":38,"vel":60}],[{"note":38,"vel":120}],[{"note":42,"vel":100}],[{"note":36,"vel":100}],[{"note":42,"vel":100}],[{"note":36,"vel":120}],[{"note":38,"vel":60}],[{"note":42,"vel":100}],[{"note":36,"vel":100}],[{"note":38,"vel":120}],[{"note":42,"vel":100}],[],[{"note":46,"vel":100}]],[[{"note":36,"vel":120}],[],[],[],[{"note":38,"vel":120}],[],[{"note":42,"vel":60}],[],[{"note":36,"vel":120}],[],[{"note":36,"vel":60}],[],[{"note":38,"vel":120}],[],[],[{"note":46,"vel":60}]],[[{"note":36,"vel":120}],[],[{"note":42,"vel":100}],[{"note":37,"vel":100}],[{"note":38,"vel":120}],[{"note":37,"vel":100}],[{"note":42,"vel":100}],[{"note":36,"vel":100}],[{"note":36,"vel":120}],[{"note":42,"vel":100}],[{"note":37,"vel":100}],[{"note":38,"vel":100}],[{"note":38,"vel":120}],[{"note":42,"vel":100}],[{"note":37,"vel":100}],[]]],"jungle":[[[{"note":36,"vel":120}],[{"note":42,"vel":100}],[{"note":38,"vel":60}],[{"note":42,"vel":100}],[{"note":36,"vel":100}],[{"note":38,"vel":60}],[{"note":42,"vel":100}],[{"note":38,"vel":100}],[{"note":36,"vel":120}],[{"note":38,"vel":60}],[{"note":42,"vel":100}],[{"note":36,"vel":60}],[{"note":38,"vel":120}],[{"note":42,"vel":100}],[{"note":38,"vel":60}],[{"note":46,"vel":100}]],[[{"note":36,"vel":120}],[],[{"note":37,"vel":100}],[{"note":42,"vel":100}],[{"note":38,"vel":120}],[{"note":37,"vel":100}],[{"note":42,"vel":100}],[{"note":36,"vel":60}],[{"note":36,"vel":100}],[{"note":37,"vel":100}],[{"note":42,"vel":100}],[{"note":38,"vel":60}],[{"note":38,"vel":120}],[{"note":37,"vel":100}],[{"note":42,"vel":100}],[{"note":46,"vel":100}]],[[{"note":36,"vel":120}],[],[{"note":42,"vel":60}],[{"note":38,"vel":60}],[{"note":38,"vel":100}],[{"note":42,"vel":100}],[{"note":36,"vel":100}],[],[{"note":36,"vel":120}],[{"note":42,"vel":100}],[{"note":38,"vel":60}],[{"note":36,"vel":60}],[{"note":38,"vel":120}],[{"note":42,"vel":100}],[{"note":38,"vel":60}],[{"note":42,"vel":100}]],[[{"note":36,"vel":120}],[],[],[{"note":38,"vel":60}],[{"note":36,"vel":100}],[{"note":38,"vel":60}],[],[{"note":42,"vel":100}],[{"note":36,"vel":120}],[{"note":38,"vel":60}],[{"note":42,"vel":100}],[],[{"note":38,"vel":120}],[],[{"note":36,"vel":100}],[{"note":38,"vel":60}]],[[{"note":36,"vel":120}],[{"note":42,"vel":100}],[{"note":42,"vel":100}],[{"note":38,"vel":60},{"note":42,"vel":100}],[{"note":42,"vel":100}],[{"note":42,"vel":100}],[{"note":36,"vel":100}],[{"note":42,"vel":100}],[{"note":36,"vel":120},{"note":42,"vel":100}],[{"note":42,"vel":100}],[{"note":38,"vel":60},{"note":42,"vel":100}],[{"note":42,"vel":100}],[{"note":38,"vel":120},{"note":42,"vel":100}],[{"note":42,"vel":100}],[{"note":42,"vel":100}],[{"note":46,"vel":100}]],[[{"note":36,"vel":120}],[{"note":47,"vel":100}],[{"note":38,"vel":60}],[{"note":42,"vel":100}],[{"note":36,"vel":100}],[{"note":47,"vel":100}],[{"note":38,"vel":120}],[{"note":42,"vel":100}],[{"note":47,"vel":120}],[{"note":42,"vel":100}],[{"note":36,"vel":100}],[{"note":38,"vel":60}],[{"note":38,"vel":120}],[{"note":47,"vel":60}],[{"note":42,"vel":100}],[{"note":46,"vel":100}]],[[{"note":36,"vel":120}],[],[{"note":42,"vel":100}],[{"note":38,"vel":60}],[{"note":36,"vel":120}],[],[{"note":42,"vel":100}],[{"note":38,"vel":60}],[{"note":36,"vel":120}],[{"note":38,"vel":60}],[{"note":42,"vel":100}],[{"note":38,"vel":100}],[{"note":36,"vel":120}],[],[{"note":46,"vel":100}],[{"note":38,"vel":120}]],[[{"note":36,"vel":120}],[{"note":42,"vel":100}],[{"note":38,"vel":60}],[{"note":36,"vel":100}],[{"note":38,"vel":120}],[{"note":42,"vel":100}],[{"note":36,"vel":100}],[{"note":38,"vel":60}],[{"note":36,"vel":120}],[{"note":42,"vel":100}],[{"note":38,"vel":60}],[{"note":42,"vel":100}],[{"note":38,"vel":120}],[{"note":46,"vel":100}],[{"note":36,"vel":100}],[{"note":42,"vel":100}]],[[{"note":36,"vel":120}],[],[{"note":42,"vel":100}],[{"note":38,"vel":60}],[{"note":42,"vel":100}],[{"note":36,"vel":100}],[{"note":38,"vel":120}],[{"note":42,"vel":100}],[{"note":36,"vel":120}],[{"note":42,"vel":100}],[{"note":38,"vel":60}],[],[{"note":38,"vel":120}],[{"note":42,"vel":100}],[{"note":36,"vel":100}],[{"note":46,"vel":100}]],[[{"note":36,"vel":120},{"note":42,"vel":100}],[{"note":38,"vel":100},{"note":37,"vel":100}],[{"note":36,"vel":100},{"note":42,"vel":100}],[{"note":38,"vel":60}],[{"note":38,"vel":120},{"note":42,"vel":100}],[{"note":36,"vel":60}],[{"note":42,"vel":100}],[{"note":38,"vel":100}],[{"note":36,"vel":120},{"note":42,"vel":100}],[{"note":38,"vel":60},{"note":37,"vel":100}],[{"note":42,"vel":100}],[{"note":36,"vel":100}],[{"note":38,"vel":120}],[{"note":47,"vel":60}],[{"note":46,"vel":100}],[{"note":38,"vel":60}]]],"garage":[[[{"note":36,"vel":120}],[],[{"note":42,"vel":100}],[],[{"note":50,"vel":120}],[],[{"note":36,"vel":100}],[{"note":42,"vel":100}],[],[{"note":42,"vel":100}],[{"note":36,"vel":100}],[{"note":42,"vel":100}],[{"note":50,"vel":120}],[],[{"note":42,"vel":100}],[{"note":46,"vel":60}]],[[{"note":36,"vel":120}],[{"note":42,"vel":100}],[{"note":42,"vel":100}],[{"note":42,"vel":100}],[{"note":50,"vel":120}],[{"note":42,"vel":100}],[{"note":36,"vel":100}],[{"note":42,"vel":100}],[{"note":36,"vel":120}],[{"note":42,"vel":100}],[{"note":42,"vel":100}],[{"note":36,"vel":60}],[{"note":50,"vel":120}],[{"note":42,"vel":100}],[{"note":42,"vel":100}],[{"note":46,"vel":100}]],[[{"note":36,"vel":120}],[],[],[],[{"note":38,"vel":120}],[],[],[{"note":42,"vel":100}],[{"note":36,"vel":100}],[],[{"note":42,"vel":100}],[],[{"note":38,"vel":120}],[],[{"note":36,"vel":60}],[]],[[{"note":36,"vel":120}],[],[{"note":42,"vel":100}],[{"note":36,"vel":60}],[{"note":50,"vel":120}],[],[{"note":46,"vel":100}],[],[{"note":36,"vel":100}],[{"note":42,"vel":100}],[],[{"note":36,"vel":60}],[{"note":50,"vel":120}],[],[{"note":42,"vel":100}],[{"note":46,"vel":60}]],[[{"note":36,"vel":120}],[{"note":42,"vel":100}],[{"note":42,"vel":100}],[{"note":42,"vel":100}],[{"note":50,"vel":120}],[{"note":42,"vel":100}],[{"note":36,"vel":100}],[{"note":42,"vel":100}],[{"note":36,"vel":100}],[{"note":42,"vel":100}],[{"note":36,"vel":120}],[{"note":42,"vel":100}],[{"note":50,"vel":120}],[{"note":46,"vel":100}],[{"note":42,"vel":100}],[]],[[{"note":36,"vel":120}],[],[{"note":42,"vel":60}],[{"note":42,"vel":100}],[{"note":50,"vel":120}],[{"note":42,"vel":100}],[{"note":46,"vel":100}],[{"note":42,"vel":60}],[{"note":36,"vel":100}],[],[{"note":42,"vel":60}],[{"note":36,"vel":60}],[{"note":50,"vel":120}],[{"note":42,"vel":100}],[{"note":42,"vel":60}],[]],[[{"note":36,"vel":120}],[],[],[{"note":42,"vel":60}],[],[{"note":50,"vel":100}],[{"note":42,"vel":60}],[],[{"note":36,"vel":100}],[],[{"note":42,"vel":60}],[],[{"note":50,"vel":120}],[],[],[{"note":46,"vel":60}]],[[{"note":36,"vel":120}],[{"note":37,"vel":60}],[{"note":42,"vel":100}],[{"note":37,"vel":100}],[{"note":50,"vel":120}],[{"note":37,"vel":60}],[{"note":36,"vel":60}],[{"note":37,"vel":100}],[{"note":36,"vel":100}],[{"note":37,"vel":60}],[{"note":42,"vel":100}],[{"note":36,"vel":60}],[{"note":50,"vel":120}],[{"note":37,"vel":100}],[{"note":46,"vel":100}],[]],[[{"note":36,"vel":120}],[],[{"note":42,"vel":60}],[],[],[],[{"note":38,"vel":120}],[],[],[{"note":42,"vel":60}],[{"note":36,"vel":100}],[],[],[{"note":42,"vel":60}],[],[{"note":46,"vel":60}]],[[{"note":36,"vel":120}],[{"note":42,"vel":100}],[],[{"note":42,"vel":100}],[{"note":50,"vel":120}],[{"note":46,"vel":100}],[{"note":36,"vel":100}],[{"note":42,"vel":100}],[{"note":36,"vel":100}],[{"note":42,"vel":100}],[{"note":36,"vel":60}],[],[{"note":50,"vel":120}],[{"note":42,"vel":100}],[{"note":46,"vel":100}],[{"note":36,"vel":60}]]],"ambient":[[[{"note":36,"vel":100}],[],[],[],[],[],[],[],[],[],[],[],[],[],[],[]],[[{"note":36,"vel":60}],[],[],[],[{"note":38,"vel":60}],[],[],[],[{"note":36,"vel":60}],[],[],[{"note":38,"vel":60}],[],[],[],[]],[[{"note":37,"vel":60}],[],[],[],[],[],[{"note":37,"vel":60}],[],[],[],[],[],[{"note":37,"vel":60}],[],[],[]],[[{"note":42,"vel":60}],[],[{"note":42,"vel":60}],[],[{"note":42,"vel":60}],[],[{"note":42,"vel":60}],[],[{"note":42,"vel":60}],[],[{"note":42,"vel":60}],[],[{"note":46,"vel":60}],[],[],[]],[[{"note":36,"vel":100}],[],[],[],[],[],[],[],[{"note":38,"vel":60}],[],[],[],[],[],[{"note":46,"vel":60}],[]],[[{"note":49,"vel":60}],[],[],[],[],[],[],[],[{"note":46,"vel":60}],[],[],[],[{"note":49,"vel":60}],[],[],[]],[[{"note":36,"vel":100}],[],[],[],[],[],[],[],[{"note":36,"vel":60}],[],[],[],[],[],[],[]],[[{"note":42,"vel":60}],[],[],[{"note":42,"vel":60}],[],[],[{"note":42,"vel":60}],[],[],[{"note":42,"vel":60}],[],[],[{"note":46,"vel":60}],[],[],[]],[[],[],[],[],[{"note":38,"vel":60}],[],[],[],[],[],[],[],[{"note":38,"vel":100}],[],[],[]],[[{"note":36,"vel":60}],[],[],[],[],[],[],[],[],[],[],[],[],[],[],[]]],"glitch":[[[{"note":36,"vel":120}],[{"note":38,"vel":60}],[{"note":36,"vel":100}],[],[{"note":42,"vel":100}],[{"note":38,"vel":120}],[],[{"note":36,"vel":60}],[],[{"note":42,"vel":100}],[{"note":38,"vel":60}],[{"note":36,"vel":120}],[{"note":38,"vel":100}],[],[{"note":42,"vel":100}],[{"note":36,"vel":60}]],[[{"note":36,"vel":120}],[{"note":42,"vel":100}],[],[{"note":38,"vel":60}],[{"note":36,"vel":120}],[{"note":42,"vel":100}],[],[{"note":38,"vel":60}],[{"note":36,"vel":100}],[{"note":42,"vel":60}],[{"note":38,"vel":100}],[{"note":42,"vel":100}],[{"note":36,"vel":60}],[],[{"note":42,"vel":100}],[{"note":38,"vel":120}]],[[{"note":36,"vel":120},{"note":38,"vel":60}],[],[{"note":42,"vel":100}],[{"note":36,"vel":100}],[],[{"note":38,"vel":120}],[{"note":42,"vel":100}],[],[{"note":36,"vel":60},{"note":42,"vel":100}],[{"note":38,"vel":100}],[],[{"note":36,"vel":120}],[{"note":42,"vel":100}],[{"note":38,"vel":60}],[],[{"note":36,"vel":100}]],[[{"note":36,"vel":120}],[{"note":36,"vel":60}],[{"note":42,"vel":100}],[{"note":36,"vel":100}],[{"note":38,"vel":120}],[{"note":36,"vel":60}],[{"note":42,"vel":100}],[{"note":38,"vel":100}],[{"note":36,"vel":120}],[{"note":36,"vel":60}],[{"note":38,"vel":60}],[{"note":42,"vel":100}],[{"note":38,"vel":120}],[],[{"note":42,"vel":100}],[{"note":36,"vel":100}]],[[{"note":42,"vel":60}],[{"note":37,"vel":60}],[{"note":38,"vel":60}],[],[{"note":42,"vel":60}],[{"note":36,"vel":60}],[],[{"note":37,"vel":60}],[{"note":38,"vel":60}],[{"note":42,"vel":60}],[],[{"note":36,"vel":60}],[{"note":37,"vel":60}],[{"note":42,"vel":60}],[{"note":38,"vel":60}],[]],[[{"note":36,"vel":120}],[],[],[],[],[{"note":38,"vel":120}],[{"note":38,"vel":100}],[{"note":38,"vel":60}],[],[],[{"note":36,"vel":100}],[],[{"note":38,"vel":120}],[],[{"note":42,"vel":100}],[{"note":46,"vel":100}]],[[],[],[],[],[],[],[],[],[{"note":36,"vel":120},{"note":38,"vel":120},{"note":42,"vel":100}],[{"note":36,"vel":100}],[{"note":38,"vel":100}],[{"note":42,"vel":100}],[{"note":36,"vel":60}],[{"note":38,"vel":60}],[],[]],[[{"note":37,"vel":120}],[{"note":37,"vel":100}],[{"note":37,"vel":60}],[],[{"note":37,"vel":120}],[{"note":37,"vel":100}],[{"note":36,"vel":120}],[],[{"note":37,"vel":120}],[{"note":37,"vel":100}],[{"note":37,"vel":60}],[{"note":38,"vel":120}],[{"note":37,"vel":100}],[{"note":37,"vel":60}],[],[{"note":46,"vel":100}]],[[{"note":36,"vel":120},{"note":38,"vel":60},{"note":42,"vel":100}],[],[{"note":36,"vel":100},{"note":42,"vel":100}],[],[{"note":38,"vel":120},{"note":42,"vel":100}],[],[{"note":36,"vel":60},{"note":42,"vel":100}],[],[{"note":36,"vel":120},{"note":42,"vel":100}],[],[{"note":38,"vel":100},{"note":42,"vel":100}],[],[{"note":36,"vel":100},{"note":38,"vel":60}],[],[{"note":46,"vel":100}],[]],[[{"note":36,"vel":120}],[],[{"note":42,"vel":100}],[],[{"note":38,"vel":120}],[{"note":42,"vel":100}],[],[],[{"note":36,"vel":120}],[{"note":42,"vel":100}],[{"note":36,"vel":100}],[{"note":38,"vel":60}],[{"note":38,"vel":120}],[{"note":36,"vel":60}],[{"note":42,"vel":100}],[{"note":38,"vel":100}]]],"electro":[[[{"note":36,"vel":120}],[],[{"note":42,"vel":100}],[],[{"note":38,"vel":120}],[],[{"note":42,"vel":100}],[],[{"note":36,"vel":120}],[],[{"note":42,"vel":100}],[],[{"note":38,"vel":120}],[],[{"note":42,"vel":100}],[{"note":46,"vel":60}]],[[{"note":36,"vel":120}],[],[],[{"note":42,"vel":100}],[{"note":38,"vel":120}],[],[{"note":42,"vel":100}],[{"note":36,"vel":100}],[{"note":36,"vel":120}],[{"note":42,"vel":100}],[],[{"note":42,"vel":100}],[{"note":38,"vel":120}],[{"note":42,"vel":100}],[{"note":36,"vel":100}],[{"note":42,"vel":100}]],[[{"note":36,"vel":120}],[{"note":42,"vel":100}],[{"note":42,"vel":100}],[{"note":42,"vel":100}],[{"note":38,"vel":120}],[{"note":42,"vel":100}],[{"note":56,"vel":100}],[{"note":42,"vel":100}],[{"note":36,"vel":120}],[{"note":42,"vel":100}],[{"note":42,"vel":100}],[{"note":56,"vel":60}],[{"note":38,"vel":120}],[{"note":42,"vel":100}],[{"note":46,"vel":100}],[{"note":42,"vel":100}]],[[{"note":36,"vel":120}],[],[{"note":42,"vel":100}],[{"note":36,"vel":100}],[{"note":38,"vel":120}],[{"note":42,"vel":100}],[],[{"note":56,"vel":100}],[{"note":36,"vel":100}],[{"note":42,"vel":100}],[{"note":36,"vel":60}],[{"note":42,"vel":100}],[{"note":38,"vel":120}],[{"note":56,"vel":100}],[{"note":42,"vel":100}],[{"note":46,"vel":100}]],[[{"note":36,"vel":120}],[],[],[],[{"note":38,"vel":120}],[],[],[],[{"note":36,"vel":100}],[],[{"note":42,"vel":100}],[],[{"note":38,"vel":120}],[],[{"note":42,"vel":100}],[{"note":56,"vel":100}]],[[{"note":36,"vel":120}],[{"note":42,"vel":100}],[{"note":36,"vel":100}],[{"note":42,"vel":100}],[{"note":38,"vel":120}],[{"note":42,"vel":100}],[{"note":36,"vel":100}],[{"note":42,"vel":100}],[{"note":36,"vel":120}],[{"note":42,"vel":100}],[{"note":36,"vel":100}],[{"note":42,"vel":100}],[{"note":38,"vel":120},{"note":50,"vel":100}],[{"note":42,"vel":100}],[{"note":46,"vel":100}],[{"note":42,"vel":100}]],[[{"note":36,"vel":120}],[],[{"note":56,"vel":120}],[],[{"note":38,"vel":120}],[{"note":56,"vel":100}],[],[{"note":56,"vel":60}],[{"note":36,"vel":120}],[{"note":56,"vel":100}],[],[{"note":56,"vel":120}],[{"note":38,"vel":120}],[],[{"note":56,"vel":100}],[{"note":46,"vel":100}]],[[{"note":36,"vel":120}],[{"note":37,"vel":100}],[{"note":42,"vel":100}],[{"note":37,"vel":100}],[{"note":38,"vel":120}],[{"note":37,"vel":100}],[{"note":42,"vel":100}],[],[{"note":36,"vel":100}],[{"note":37,"vel":100}],[{"note":42,"vel":100}],[{"note":36,"vel":60}],[{"note":38,"vel":120},{"note":50,"vel":100}],[{"note":37,"vel":100}],[{"note":46,"vel":100}],[]],[[{"note":36,"vel":120}],[],[{"note":42,"vel":100}],[],[{"note":50,"vel":120}],[{"note":42,"vel":100}],[{"note":36,"vel":100}],[{"note":42,"vel":100}],[{"note":36,"vel":100}],[{"note":42,"vel":100}],[],[{"note":36,"vel":60}],[{"note":50,"vel":120}],[{"note":42,"vel":100}],[{"note":42,"vel":100}],[{"note":46,"vel":100}]],[[{"note":36,"vel":120}],[{"note":56,"vel":60}],[{"note":42,"vel":100}],[{"note":56,"vel":100}],[{"note":50,"vel":120}],[{"note":42,"vel":100}],[{"note":56,"vel":100}],[{"note":42,"vel":100}],[{"note":36,"vel":120}],[{"note":42,"vel":100}],[{"note":56,"vel":100}],[{"note":36,"vel":60}],[{"note":50,"vel":120},{"note":56,"vel":100}],[{"note":42,"vel":100}],[{"note":46,"vel":100}],[{"note":56,"vel":60}]]],"downtempo":[[[{"note":36,"vel":120}],[],[],[],[{"note":38,"vel":120}],[],[],[{"note":42,"vel":60}],[{"note":36,"vel":100}],[],[{"note":42,"vel":60}],[],[{"note":38,"vel":120}],[],[{"note":36,"vel":60}],[]],[[{"note":36,"vel":120}],[],[{"note":42,"vel":60}],[],[{"note":38,"vel":120}],[],[{"note":46,"vel":60}],[],[{"note":36,"vel":120}],[{"note":42,"vel":60}],[],[{"note":36,"vel":60}],[{"note":38,"vel":120}],[],[{"note":42,"vel":60}],[]],[[{"note":36,"vel":120}],[],[],[{"note":42,"vel":60}],[{"note":38,"vel":120}],[],[{"note":42,"vel":60}],[],[{"note":36,"vel":120}],[{"note":42,"vel":60}],[{"note":36,"vel":100}],[],[{"note":38,"vel":120}],[{"note":42,"vel":60}],[],[{"note":46,"vel":60}]],[[{"note":36,"vel":120}],[],[],[],[{"note":38,"vel":120}],[],[{"note":42,"vel":60}],[],[{"note":36,"vel":100}],[],[],[{"note":36,"vel":60}],[{"note":38,"vel":120}],[],[],[{"note":46,"vel":60}]],[[{"note":36,"vel":100}],[{"note":42,"vel":60}],[],[{"note":42,"vel":60}],[{"note":38,"vel":100}],[{"note":42,"vel":60}],[],[{"note":42,"vel":60}],[{"note":36,"vel":100}],[{"note":42,"vel":60}],[{"note":36,"vel":60}],[{"note":42,"vel":60}],[{"note":38,"vel":120}],[{"note":46,"vel":60}],[],[{"note":42,"vel":60}]],[[{"note":36,"vel":120}],[],[],[{"note":42,"vel":60}],[{"note":38,"vel":120}],[],[{"note":46,"vel":60}],[],[{"note":36,"vel":100}],[{"note":42,"vel":60}],[],[],[{"note":38,"vel":120}],[{"note":42,"vel":60}],[],[{"note":46,"vel":60}]],[[{"note":36,"vel":120}],[],[],[],[],[],[],[],[{"note":36,"vel":100}],[],[{"note":38,"vel":120}],[],[],[],[],[{"note":49,"vel":60}]],[[{"note":36,"vel":100}],[],[{"note":42,"vel":60}],[{"note":42,"vel":60}],[{"note":38,"vel":120}],[],[{"note":42,"vel":60}],[],[{"note":36,"vel":100}],[{"note":42,"vel":60}],[],[{"note":36,"vel":60}],[{"note":38,"vel":120}],[{"note":42,"vel":60}],[{"note":46,"vel":60}],[]],[[{"note":36,"vel":100}],[],[{"note":42,"vel":60}],[],[{"note":38,"vel":100}],[{"note":42,"vel":60}],[],[{"note":46,"vel":60}],[{"note":36,"vel":100}],[],[{"note":42,"vel":60}],[{"note":36,"vel":60}],[{"note":38,"vel":100}],[],[{"note":42,"vel":60}],[]],[[{"note":36,"vel":120}],[],[],[],[{"note":38,"vel":120}],[],[],[],[{"note":36,"vel":120}],[],[],[],[{"note":38,"vel":120}],[],[],[]]]}